<mxfile host="65bd71144e">
    <diagram id="HKzBcj2gBr9yIM3zbVFU" name="Page-1">
        <mxGraphModel dx="2752" dy="1505" grid="1" gridSize="10" guides="1" tooltips="1" connect="1" arrows="1" fold="1" page="1" pageScale="1" pageWidth="827" pageHeight="1169" background="#1C2120" math="0" shadow="0">
            <root>
                <mxCell id="0"/>
                <mxCell id="1" parent="0"/>
                <mxCell id="CFDqmgjkNxxiv-5AeCyQ-52" value="PILOT" style="text;html=1;align=center;verticalAlign=middle;resizable=0;points=[];autosize=1;strokeColor=#666666;fillColor=#f5f5f5;fontColor=#333333;" parent="1" vertex="1">
                    <mxGeometry x="40" y="90" width="50" height="20" as="geometry"/>
                </mxCell>
                <mxCell id="CFDqmgjkNxxiv-5AeCyQ-53" value="" style="shape=table;startSize=0;container=1;collapsible=0;childLayout=tableLayout;fillColor=#f5f5f5;fontColor=#333333;strokeColor=#666666;" parent="1" vertex="1">
                    <mxGeometry x="40" y="120" width="680" height="40" as="geometry"/>
                </mxCell>
                <mxCell id="CFDqmgjkNxxiv-5AeCyQ-54" value="" style="shape=tableRow;horizontal=0;startSize=0;swimlaneHead=0;swimlaneBody=0;top=0;left=0;bottom=0;right=0;collapsible=0;dropTarget=0;fillColor=#f5f5f5;points=[[0,0.5],[1,0.5]];portConstraint=eastwest;fontColor=#333333;strokeColor=#666666;" parent="CFDqmgjkNxxiv-5AeCyQ-53" vertex="1">
                    <mxGeometry width="680" height="40" as="geometry"/>
                </mxCell>
                <mxCell id="CFDqmgjkNxxiv-5AeCyQ-55" value="&lt;u style=&quot;color: rgb(26 , 26 , 26) ; font-size: 14px&quot;&gt;pilot_id&lt;/u&gt;" style="shape=partialRectangle;html=1;whiteSpace=wrap;connectable=0;overflow=hidden;fillColor=#f5f5f5;top=0;left=0;bottom=0;right=0;pointerEvents=1;fontColor=#333333;strokeColor=#666666;" parent="CFDqmgjkNxxiv-5AeCyQ-54" vertex="1">
                    <mxGeometry width="97" height="40" as="geometry">
                        <mxRectangle width="97" height="40" as="alternateBounds"/>
                    </mxGeometry>
                </mxCell>
                <mxCell id="CFDqmgjkNxxiv-5AeCyQ-56" value="&lt;span style=&quot;color: rgb(26 , 26 , 26) ; font-size: 14px&quot;&gt;P_Fname&lt;/span&gt;" style="shape=partialRectangle;html=1;whiteSpace=wrap;connectable=0;overflow=hidden;fillColor=#f5f5f5;top=0;left=0;bottom=0;right=0;pointerEvents=1;fontColor=#333333;strokeColor=#666666;" parent="CFDqmgjkNxxiv-5AeCyQ-54" vertex="1">
                    <mxGeometry x="97" width="98" height="40" as="geometry">
                        <mxRectangle width="98" height="40" as="alternateBounds"/>
                    </mxGeometry>
                </mxCell>
                <mxCell id="CFDqmgjkNxxiv-5AeCyQ-57" value="&lt;span style=&quot;color: rgb(26 , 26 , 26) ; font-size: 14px&quot;&gt;P_Lname&lt;/span&gt;" style="shape=partialRectangle;html=1;whiteSpace=wrap;connectable=0;overflow=hidden;fillColor=#f5f5f5;top=0;left=0;bottom=0;right=0;pointerEvents=1;fontColor=#333333;strokeColor=#666666;" parent="CFDqmgjkNxxiv-5AeCyQ-54" vertex="1">
                    <mxGeometry x="195" width="97" height="40" as="geometry">
                        <mxRectangle width="97" height="40" as="alternateBounds"/>
                    </mxGeometry>
                </mxCell>
                <mxCell id="CFDqmgjkNxxiv-5AeCyQ-58" value="&lt;span style=&quot;color: rgb(26 , 26 , 26) ; font-size: 14px&quot;&gt;poloticense&lt;/span&gt;" style="shape=partialRectangle;html=1;whiteSpace=wrap;connectable=0;overflow=hidden;fillColor=#f5f5f5;top=0;left=0;bottom=0;right=0;pointerEvents=1;fontColor=#333333;strokeColor=#666666;" parent="CFDqmgjkNxxiv-5AeCyQ-54" vertex="1">
                    <mxGeometry x="292" width="96" height="40" as="geometry">
                        <mxRectangle width="96" height="40" as="alternateBounds"/>
                    </mxGeometry>
                </mxCell>
                <mxCell id="CFDqmgjkNxxiv-5AeCyQ-59" value="&lt;span style=&quot;color: rgb(26 , 26 , 26) ; font-size: 14px&quot;&gt;flight_id&lt;/span&gt;" style="shape=partialRectangle;html=1;whiteSpace=wrap;connectable=0;overflow=hidden;fillColor=#f5f5f5;top=0;left=0;bottom=0;right=0;pointerEvents=1;fontColor=#333333;strokeColor=#666666;" parent="CFDqmgjkNxxiv-5AeCyQ-54" vertex="1">
                    <mxGeometry x="388" width="97" height="40" as="geometry">
                        <mxRectangle width="97" height="40" as="alternateBounds"/>
                    </mxGeometry>
                </mxCell>
                <mxCell id="CFDqmgjkNxxiv-5AeCyQ-60" value="&lt;span style=&quot;color: rgb(26 , 26 , 26) ; font-size: 14px&quot;&gt;designation&lt;/span&gt;" style="shape=partialRectangle;html=1;whiteSpace=wrap;connectable=0;overflow=hidden;fillColor=#f5f5f5;top=0;left=0;bottom=0;right=0;pointerEvents=1;fontColor=#333333;strokeColor=#666666;" parent="CFDqmgjkNxxiv-5AeCyQ-54" vertex="1">
                    <mxGeometry x="485" width="99" height="40" as="geometry">
                        <mxRectangle width="99" height="40" as="alternateBounds"/>
                    </mxGeometry>
                </mxCell>
                <mxCell id="CFDqmgjkNxxiv-5AeCyQ-61" value="&lt;span style=&quot;color: rgb(26 , 26 , 26) ; font-size: 14px&quot;&gt;contactnumber&lt;/span&gt;" style="shape=partialRectangle;html=1;whiteSpace=wrap;connectable=0;overflow=hidden;fillColor=#f5f5f5;top=0;left=0;bottom=0;right=0;pointerEvents=1;fontColor=#333333;strokeColor=#666666;" parent="CFDqmgjkNxxiv-5AeCyQ-54" vertex="1">
                    <mxGeometry x="584" width="96" height="40" as="geometry">
                        <mxRectangle width="96" height="40" as="alternateBounds"/>
                    </mxGeometry>
                </mxCell>
                <mxCell id="CFDqmgjkNxxiv-5AeCyQ-77" value="AIRLINE" style="text;html=1;align=center;verticalAlign=middle;resizable=0;points=[];autosize=1;strokeColor=#FFFFFF;fillColor=#f5f5f5;fontColor=#333333;" parent="1" vertex="1">
                    <mxGeometry x="40" y="250" width="60" height="20" as="geometry"/>
                </mxCell>
                <mxCell id="CFDqmgjkNxxiv-5AeCyQ-78" value="" style="shape=table;startSize=0;container=1;collapsible=0;childLayout=tableLayout;fillColor=#f5f5f5;fontColor=#333333;strokeColor=#FFFFFF;" parent="1" vertex="1">
                    <mxGeometry x="40" y="280" width="410" height="40" as="geometry"/>
                </mxCell>
                <mxCell id="CFDqmgjkNxxiv-5AeCyQ-79" value="" style="shape=tableRow;horizontal=0;startSize=0;swimlaneHead=0;swimlaneBody=0;top=0;left=0;bottom=0;right=0;collapsible=0;dropTarget=0;fillColor=#f5f5f5;points=[[0,0.5],[1,0.5]];portConstraint=eastwest;fontColor=#333333;strokeColor=#FFFFFF;" parent="CFDqmgjkNxxiv-5AeCyQ-78" vertex="1">
                    <mxGeometry width="410" height="40" as="geometry"/>
                </mxCell>
                <mxCell id="CFDqmgjkNxxiv-5AeCyQ-80" value="&lt;span style=&quot;color: rgb(26 , 26 , 26) ; font-size: 14px&quot;&gt;manufacturer&lt;/span&gt;" style="shape=partialRectangle;html=1;whiteSpace=wrap;connectable=0;overflow=hidden;fillColor=#f5f5f5;top=0;left=0;bottom=0;right=0;pointerEvents=1;fontColor=#333333;strokeColor=#FFFFFF;" parent="CFDqmgjkNxxiv-5AeCyQ-79" vertex="1">
                    <mxGeometry width="103" height="40" as="geometry">
                        <mxRectangle width="103" height="40" as="alternateBounds"/>
                    </mxGeometry>
                </mxCell>
                <mxCell id="CFDqmgjkNxxiv-5AeCyQ-81" value="&lt;span style=&quot;color: rgb(26 , 26 , 26) ; font-size: 14px&quot;&gt;modelnumber&lt;/span&gt;" style="shape=partialRectangle;html=1;whiteSpace=wrap;connectable=0;overflow=hidden;fillColor=#f5f5f5;top=0;left=0;bottom=0;right=0;pointerEvents=1;fontColor=#333333;strokeColor=#FFFFFF;" parent="CFDqmgjkNxxiv-5AeCyQ-79" vertex="1">
                    <mxGeometry x="103" width="102" height="40" as="geometry">
                        <mxRectangle width="102" height="40" as="alternateBounds"/>
                    </mxGeometry>
                </mxCell>
                <mxCell id="CFDqmgjkNxxiv-5AeCyQ-82" value="&lt;u style=&quot;color: rgb(26 , 26 , 26) ; font-size: 14px&quot;&gt;airline_id&lt;/u&gt;" style="shape=partialRectangle;html=1;whiteSpace=wrap;connectable=0;overflow=hidden;fillColor=#f5f5f5;top=0;left=0;bottom=0;right=0;pointerEvents=1;fontColor=#333333;strokeColor=#FFFFFF;" parent="CFDqmgjkNxxiv-5AeCyQ-79" vertex="1">
                    <mxGeometry x="205" width="103" height="40" as="geometry">
                        <mxRectangle width="103" height="40" as="alternateBounds"/>
                    </mxGeometry>
                </mxCell>
                <mxCell id="CFDqmgjkNxxiv-5AeCyQ-83" value="&lt;span style=&quot;color: rgb(26 , 26 , 26) ; font-size: 14px&quot;&gt;aeroplane_id&lt;/span&gt;" style="shape=partialRectangle;html=1;whiteSpace=wrap;connectable=0;overflow=hidden;fillColor=#f5f5f5;top=0;left=0;bottom=0;right=0;pointerEvents=1;fontColor=#333333;strokeColor=#FFFFFF;" parent="CFDqmgjkNxxiv-5AeCyQ-79" vertex="1">
                    <mxGeometry x="308" width="102" height="40" as="geometry">
                        <mxRectangle width="102" height="40" as="alternateBounds"/>
                    </mxGeometry>
                </mxCell>
                <mxCell id="CFDqmgjkNxxiv-5AeCyQ-84" value="FLIGHT" style="text;html=1;align=center;verticalAlign=middle;resizable=0;points=[];autosize=1;strokeColor=#FFFFFF;fillColor=#f5f5f5;fontColor=#333333;" parent="1" vertex="1">
                    <mxGeometry x="40" y="410" width="60" height="20" as="geometry"/>
                </mxCell>
                <mxCell id="CFDqmgjkNxxiv-5AeCyQ-85" value="" style="shape=table;startSize=0;container=1;collapsible=0;childLayout=tableLayout;fillColor=#f5f5f5;fontColor=#333333;strokeColor=#FFFFFF;" parent="1" vertex="1">
                    <mxGeometry x="40" y="440" width="810" height="40" as="geometry"/>
                </mxCell>
                <mxCell id="CFDqmgjkNxxiv-5AeCyQ-86" value="" style="shape=tableRow;horizontal=0;startSize=0;swimlaneHead=0;swimlaneBody=0;top=0;left=0;bottom=0;right=0;collapsible=0;dropTarget=0;fillColor=#f5f5f5;points=[[0,0.5],[1,0.5]];portConstraint=eastwest;fontColor=#333333;strokeColor=#FFFFFF;" parent="CFDqmgjkNxxiv-5AeCyQ-85" vertex="1">
                    <mxGeometry width="810" height="40" as="geometry"/>
                </mxCell>
                <mxCell id="CFDqmgjkNxxiv-5AeCyQ-87" value="&lt;u style=&quot;color: rgb(26 , 26 , 26) ; font-size: 14px&quot;&gt;flight_id&lt;/u&gt;" style="shape=partialRectangle;html=1;whiteSpace=wrap;connectable=0;overflow=hidden;fillColor=#f5f5f5;top=0;left=0;bottom=0;right=0;pointerEvents=1;fontColor=#333333;strokeColor=#FFFFFF;" parent="CFDqmgjkNxxiv-5AeCyQ-86" vertex="1">
                    <mxGeometry width="90" height="40" as="geometry">
                        <mxRectangle width="90" height="40" as="alternateBounds"/>
                    </mxGeometry>
                </mxCell>
                <mxCell id="CFDqmgjkNxxiv-5AeCyQ-88" value="&lt;span style=&quot;color: rgb(26 , 26 , 26) ; font-size: 14px&quot;&gt;airplane_id&lt;/span&gt;" style="shape=partialRectangle;html=1;whiteSpace=wrap;connectable=0;overflow=hidden;fillColor=#f5f5f5;top=0;left=0;bottom=0;right=0;pointerEvents=1;fontColor=#333333;strokeColor=#FFFFFF;" parent="CFDqmgjkNxxiv-5AeCyQ-86" vertex="1">
                    <mxGeometry x="90" width="90" height="40" as="geometry">
                        <mxRectangle width="90" height="40" as="alternateBounds"/>
                    </mxGeometry>
                </mxCell>
                <mxCell id="CFDqmgjkNxxiv-5AeCyQ-89" value="&lt;span style=&quot;color: rgb(26 , 26 , 26) ; font-size: 14px&quot;&gt;departuredate&lt;/span&gt;" style="shape=partialRectangle;html=1;whiteSpace=wrap;connectable=0;overflow=hidden;fillColor=#f5f5f5;top=0;left=0;bottom=0;right=0;pointerEvents=1;fontColor=#333333;strokeColor=#FFFFFF;" parent="CFDqmgjkNxxiv-5AeCyQ-86" vertex="1">
                    <mxGeometry x="180" width="90" height="40" as="geometry">
                        <mxRectangle width="90" height="40" as="alternateBounds"/>
                    </mxGeometry>
                </mxCell>
                <mxCell id="CFDqmgjkNxxiv-5AeCyQ-90" value="&lt;span style=&quot;color: rgb(26 , 26 , 26) ; font-size: 14px&quot;&gt;departuretime&lt;/span&gt;" style="shape=partialRectangle;html=1;whiteSpace=wrap;connectable=0;overflow=hidden;fillColor=#f5f5f5;top=0;left=0;bottom=0;right=0;pointerEvents=1;fontColor=#333333;strokeColor=#FFFFFF;" parent="CFDqmgjkNxxiv-5AeCyQ-86" vertex="1">
                    <mxGeometry x="270" width="90" height="40" as="geometry">
                        <mxRectangle width="90" height="40" as="alternateBounds"/>
                    </mxGeometry>
                </mxCell>
                <mxCell id="CFDqmgjkNxxiv-5AeCyQ-91" value="&lt;span style=&quot;color: rgb(26 , 26 , 26) ; font-size: 14px&quot;&gt;arrival_date&lt;/span&gt;" style="shape=partialRectangle;html=1;whiteSpace=wrap;connectable=0;overflow=hidden;fillColor=#f5f5f5;top=0;left=0;bottom=0;right=0;pointerEvents=1;fontColor=#333333;strokeColor=#FFFFFF;" parent="CFDqmgjkNxxiv-5AeCyQ-86" vertex="1">
                    <mxGeometry x="360" width="90" height="40" as="geometry">
                        <mxRectangle width="90" height="40" as="alternateBounds"/>
                    </mxGeometry>
                </mxCell>
                <mxCell id="CFDqmgjkNxxiv-5AeCyQ-92" value="&lt;span style=&quot;color: rgb(26 , 26 , 26) ; font-size: 14px&quot;&gt;arrival_time&lt;/span&gt;" style="shape=partialRectangle;html=1;whiteSpace=wrap;connectable=0;overflow=hidden;fillColor=#f5f5f5;top=0;left=0;bottom=0;right=0;pointerEvents=1;fontColor=#333333;strokeColor=#FFFFFF;" parent="CFDqmgjkNxxiv-5AeCyQ-86" vertex="1">
                    <mxGeometry x="450" width="90" height="40" as="geometry">
                        <mxRectangle width="90" height="40" as="alternateBounds"/>
                    </mxGeometry>
                </mxCell>
                <mxCell id="CFDqmgjkNxxiv-5AeCyQ-93" value="&lt;span style=&quot;color: rgb(26 , 26 , 26) ; font-size: 14px&quot;&gt;from&lt;/span&gt;" style="shape=partialRectangle;html=1;whiteSpace=wrap;connectable=0;overflow=hidden;fillColor=#f5f5f5;top=0;left=0;bottom=0;right=0;pointerEvents=1;fontColor=#333333;strokeColor=#FFFFFF;" parent="CFDqmgjkNxxiv-5AeCyQ-86" vertex="1">
                    <mxGeometry x="540" width="90" height="40" as="geometry">
                        <mxRectangle width="90" height="40" as="alternateBounds"/>
                    </mxGeometry>
                </mxCell>
                <mxCell id="CFDqmgjkNxxiv-5AeCyQ-94" value="&lt;span style=&quot;color: rgb(26 , 26 , 26) ; font-size: 14px&quot;&gt;to&lt;/span&gt;" style="shape=partialRectangle;html=1;whiteSpace=wrap;connectable=0;overflow=hidden;fillColor=#f5f5f5;top=0;left=0;bottom=0;right=0;pointerEvents=1;fontColor=#333333;strokeColor=#FFFFFF;" parent="CFDqmgjkNxxiv-5AeCyQ-86" vertex="1">
                    <mxGeometry x="630" width="90" height="40" as="geometry">
                        <mxRectangle width="90" height="40" as="alternateBounds"/>
                    </mxGeometry>
                </mxCell>
                <mxCell id="CFDqmgjkNxxiv-5AeCyQ-141" value="po_ssn" style="shape=partialRectangle;html=1;whiteSpace=wrap;connectable=0;overflow=hidden;fillColor=#f5f5f5;top=0;left=0;bottom=0;right=0;pointerEvents=1;fontColor=#333333;strokeColor=#FFFFFF;" parent="CFDqmgjkNxxiv-5AeCyQ-86" vertex="1">
                    <mxGeometry x="720" width="90" height="40" as="geometry">
                        <mxRectangle width="90" height="40" as="alternateBounds"/>
                    </mxGeometry>
                </mxCell>
                <mxCell id="CFDqmgjkNxxiv-5AeCyQ-95" value="PASSENGER" style="text;html=1;align=center;verticalAlign=middle;resizable=0;points=[];autosize=1;strokeColor=#FFFFFF;fillColor=#f5f5f5;fontColor=#333333;" parent="1" vertex="1">
                    <mxGeometry x="40" y="574" width="90" height="20" as="geometry"/>
                </mxCell>
                <mxCell id="CFDqmgjkNxxiv-5AeCyQ-96" value="" style="shape=table;startSize=0;container=1;collapsible=0;childLayout=tableLayout;fillColor=#f5f5f5;fontColor=#333333;strokeColor=#FFFFFF;" parent="1" vertex="1">
                    <mxGeometry x="40" y="600" width="1180" height="40" as="geometry"/>
                </mxCell>
                <mxCell id="CFDqmgjkNxxiv-5AeCyQ-97" value="" style="shape=tableRow;horizontal=0;startSize=0;swimlaneHead=0;swimlaneBody=0;top=0;left=0;bottom=0;right=0;collapsible=0;dropTarget=0;fillColor=#f5f5f5;points=[[0,0.5],[1,0.5]];portConstraint=eastwest;fontColor=#333333;strokeColor=#FFFFFF;" parent="CFDqmgjkNxxiv-5AeCyQ-96" vertex="1">
                    <mxGeometry width="1180" height="40" as="geometry"/>
                </mxCell>
                <mxCell id="CFDqmgjkNxxiv-5AeCyQ-98" value="&lt;u style=&quot;color: rgb(26 , 26 , 26) ; font-size: 14px&quot;&gt;passenger_id&lt;/u&gt;" style="shape=partialRectangle;html=1;whiteSpace=wrap;connectable=0;overflow=hidden;fillColor=#f5f5f5;top=0;left=0;bottom=0;right=0;pointerEvents=1;fontColor=#333333;strokeColor=#FFFFFF;" parent="CFDqmgjkNxxiv-5AeCyQ-97" vertex="1">
                    <mxGeometry width="130" height="40" as="geometry">
                        <mxRectangle width="130" height="40" as="alternateBounds"/>
                    </mxGeometry>
                </mxCell>
                <mxCell id="CFDqmgjkNxxiv-5AeCyQ-99" value="&lt;span style=&quot;color: rgb(26 , 26 , 26) ; font-size: 14px&quot;&gt;Pass_Fname&lt;/span&gt;" style="shape=partialRectangle;html=1;whiteSpace=wrap;connectable=0;overflow=hidden;fillColor=#f5f5f5;top=0;left=0;bottom=0;right=0;pointerEvents=1;fontColor=#333333;strokeColor=#FFFFFF;" parent="CFDqmgjkNxxiv-5AeCyQ-97" vertex="1">
                    <mxGeometry x="130" width="134" height="40" as="geometry">
                        <mxRectangle width="134" height="40" as="alternateBounds"/>
                    </mxGeometry>
                </mxCell>
                <mxCell id="CFDqmgjkNxxiv-5AeCyQ-100" value="&lt;span style=&quot;color: rgb(26 , 26 , 26) ; font-size: 14px&quot;&gt;Pass_Lname&lt;/span&gt;" style="shape=partialRectangle;html=1;whiteSpace=wrap;connectable=0;overflow=hidden;fillColor=#f5f5f5;top=0;left=0;bottom=0;right=0;pointerEvents=1;fontColor=#333333;strokeColor=#FFFFFF;" parent="CFDqmgjkNxxiv-5AeCyQ-97" vertex="1">
                    <mxGeometry x="264" width="130" height="40" as="geometry">
                        <mxRectangle width="130" height="40" as="alternateBounds"/>
                    </mxGeometry>
                </mxCell>
                <mxCell id="CFDqmgjkNxxiv-5AeCyQ-101" value="&lt;span style=&quot;color: rgb(26 , 26 , 26) ; font-size: 14px&quot;&gt;email_address&lt;/span&gt;" style="shape=partialRectangle;html=1;whiteSpace=wrap;connectable=0;overflow=hidden;fillColor=#f5f5f5;top=0;left=0;bottom=0;right=0;pointerEvents=1;fontColor=#333333;strokeColor=#FFFFFF;" parent="CFDqmgjkNxxiv-5AeCyQ-97" vertex="1">
                    <mxGeometry x="394" width="132" height="40" as="geometry">
                        <mxRectangle width="132" height="40" as="alternateBounds"/>
                    </mxGeometry>
                </mxCell>
                <mxCell id="CFDqmgjkNxxiv-5AeCyQ-102" value="&lt;span style=&quot;color: rgb(26 , 26 , 26) ; font-size: 14px&quot;&gt;maillingaddress&lt;/span&gt;" style="shape=partialRectangle;html=1;whiteSpace=wrap;connectable=0;overflow=hidden;fillColor=#f5f5f5;top=0;left=0;bottom=0;right=0;pointerEvents=1;fontColor=#333333;strokeColor=#FFFFFF;" parent="CFDqmgjkNxxiv-5AeCyQ-97" vertex="1">
                    <mxGeometry x="526" width="130" height="40" as="geometry">
                        <mxRectangle width="130" height="40" as="alternateBounds"/>
                    </mxGeometry>
                </mxCell>
                <mxCell id="CFDqmgjkNxxiv-5AeCyQ-103" value="&lt;span style=&quot;color: rgb(26 , 26 , 26) ; font-size: 14px&quot;&gt;contactnumber&lt;/span&gt;" style="shape=partialRectangle;html=1;whiteSpace=wrap;connectable=0;overflow=hidden;fillColor=#f5f5f5;top=0;left=0;bottom=0;right=0;pointerEvents=1;fontColor=#333333;strokeColor=#FFFFFF;" parent="CFDqmgjkNxxiv-5AeCyQ-97" vertex="1">
                    <mxGeometry x="656" width="134" height="40" as="geometry">
                        <mxRectangle width="134" height="40" as="alternateBounds"/>
                    </mxGeometry>
                </mxCell>
                <mxCell id="CFDqmgjkNxxiv-5AeCyQ-104" value="&lt;span style=&quot;color: rgb(26 , 26 , 26) ; font-size: 14px&quot;&gt;frequentflyemumber&lt;/span&gt;" style="shape=partialRectangle;html=1;whiteSpace=wrap;connectable=0;overflow=hidden;fillColor=#f5f5f5;top=0;left=0;bottom=0;right=0;pointerEvents=1;fontColor=#333333;strokeColor=#FFFFFF;" parent="CFDqmgjkNxxiv-5AeCyQ-97" vertex="1">
                    <mxGeometry x="790" width="130" height="40" as="geometry">
                        <mxRectangle width="130" height="40" as="alternateBounds"/>
                    </mxGeometry>
                </mxCell>
                <mxCell id="CFDqmgjkNxxiv-5AeCyQ-145" value="ha_ssn" style="shape=partialRectangle;html=1;whiteSpace=wrap;connectable=0;overflow=hidden;fillColor=#f5f5f5;top=0;left=0;bottom=0;right=0;pointerEvents=1;fontColor=#333333;strokeColor=#FFFFFF;" parent="CFDqmgjkNxxiv-5AeCyQ-97" vertex="1">
                    <mxGeometry x="920" width="130" height="40" as="geometry">
                        <mxRectangle width="130" height="40" as="alternateBounds"/>
                    </mxGeometry>
                </mxCell>
                <mxCell id="CFDqmgjkNxxiv-5AeCyQ-149" value="F_id" style="shape=partialRectangle;html=1;whiteSpace=wrap;connectable=0;overflow=hidden;fillColor=#f5f5f5;top=0;left=0;bottom=0;right=0;pointerEvents=1;fontColor=#333333;strokeColor=#FFFFFF;" parent="CFDqmgjkNxxiv-5AeCyQ-97" vertex="1">
                    <mxGeometry x="1050" width="130" height="40" as="geometry">
                        <mxRectangle width="130" height="40" as="alternateBounds"/>
                    </mxGeometry>
                </mxCell>
                <mxCell id="CFDqmgjkNxxiv-5AeCyQ-105" value="BOARDING_PASS" style="text;html=1;align=center;verticalAlign=middle;resizable=0;points=[];autosize=1;strokeColor=#FFFFFF;fillColor=#f5f5f5;fontColor=#333333;" parent="1" vertex="1">
                    <mxGeometry x="40" y="730" width="120" height="20" as="geometry"/>
                </mxCell>
                <mxCell id="CFDqmgjkNxxiv-5AeCyQ-106" value="" style="shape=table;startSize=0;container=1;collapsible=0;childLayout=tableLayout;fillColor=#f5f5f5;fontColor=#333333;strokeColor=#FFFFFF;" parent="1" vertex="1">
                    <mxGeometry x="40" y="760" width="360" height="40" as="geometry"/>
                </mxCell>
                <mxCell id="CFDqmgjkNxxiv-5AeCyQ-107" value="" style="shape=tableRow;horizontal=0;startSize=0;swimlaneHead=0;swimlaneBody=0;top=0;left=0;bottom=0;right=0;collapsible=0;dropTarget=0;fillColor=#f5f5f5;points=[[0,0.5],[1,0.5]];portConstraint=eastwest;fontColor=#333333;strokeColor=#FFFFFF;" parent="CFDqmgjkNxxiv-5AeCyQ-106" vertex="1">
                    <mxGeometry width="360" height="40" as="geometry"/>
                </mxCell>
                <mxCell id="CFDqmgjkNxxiv-5AeCyQ-108" value="&lt;span style=&quot;color: rgb(26 , 26 , 26)&quot;&gt;&lt;u&gt;&lt;font style=&quot;font-size: 14px&quot;&gt;board_id&lt;/font&gt;&lt;/u&gt;&lt;/span&gt;" style="shape=partialRectangle;html=1;whiteSpace=wrap;connectable=0;overflow=hidden;fillColor=#f5f5f5;top=0;left=0;bottom=0;right=0;pointerEvents=1;fontColor=#333333;strokeColor=#FFFFFF;" parent="CFDqmgjkNxxiv-5AeCyQ-107" vertex="1">
                    <mxGeometry width="120" height="40" as="geometry">
                        <mxRectangle width="120" height="40" as="alternateBounds"/>
                    </mxGeometry>
                </mxCell>
                <mxCell id="CFDqmgjkNxxiv-5AeCyQ-143" value="has_ssn" style="shape=partialRectangle;html=1;whiteSpace=wrap;connectable=0;overflow=hidden;fillColor=#f5f5f5;top=0;left=0;bottom=0;right=0;pointerEvents=1;fontColor=#333333;strokeColor=#FFFFFF;" parent="CFDqmgjkNxxiv-5AeCyQ-107" vertex="1">
                    <mxGeometry x="120" width="120" height="40" as="geometry">
                        <mxRectangle width="120" height="40" as="alternateBounds"/>
                    </mxGeometry>
                </mxCell>
                <mxCell id="CFDqmgjkNxxiv-5AeCyQ-151" value="Fli_id" style="shape=partialRectangle;html=1;whiteSpace=wrap;connectable=0;overflow=hidden;fillColor=#f5f5f5;top=0;left=0;bottom=0;right=0;pointerEvents=1;fontColor=#333333;strokeColor=#FFFFFF;" parent="CFDqmgjkNxxiv-5AeCyQ-107" vertex="1">
                    <mxGeometry x="240" width="120" height="40" as="geometry">
                        <mxRectangle width="120" height="40" as="alternateBounds"/>
                    </mxGeometry>
                </mxCell>
                <mxCell id="CFDqmgjkNxxiv-5AeCyQ-109" value="TICKET" style="text;html=1;align=center;verticalAlign=middle;resizable=0;points=[];autosize=1;strokeColor=#FFFFFF;fillColor=#f5f5f5;fontColor=#333333;" parent="1" vertex="1">
                    <mxGeometry x="40" y="890" width="60" height="20" as="geometry"/>
                </mxCell>
                <mxCell id="CFDqmgjkNxxiv-5AeCyQ-110" value="" style="shape=table;startSize=0;container=1;collapsible=0;childLayout=tableLayout;fillColor=#f5f5f5;fontColor=#333333;strokeColor=#FFFFFF;" parent="1" vertex="1">
                    <mxGeometry x="40" y="920" width="1066" height="40" as="geometry"/>
                </mxCell>
                <mxCell id="CFDqmgjkNxxiv-5AeCyQ-111" value="" style="shape=tableRow;horizontal=0;startSize=0;swimlaneHead=0;swimlaneBody=0;top=0;left=0;bottom=0;right=0;collapsible=0;dropTarget=0;fillColor=#f5f5f5;points=[[0,0.5],[1,0.5]];portConstraint=eastwest;fontColor=#333333;strokeColor=#FFFFFF;" parent="CFDqmgjkNxxiv-5AeCyQ-110" vertex="1">
                    <mxGeometry width="1066" height="40" as="geometry"/>
                </mxCell>
                <mxCell id="CFDqmgjkNxxiv-5AeCyQ-112" value="&lt;u style=&quot;color: rgb(26 , 26 , 26) ; font-size: 14px&quot;&gt;ticket_id&lt;/u&gt;" style="shape=partialRectangle;html=1;whiteSpace=wrap;connectable=0;overflow=hidden;fillColor=#f5f5f5;top=0;left=0;bottom=0;right=0;pointerEvents=1;fontColor=#333333;strokeColor=#FFFFFF;" parent="CFDqmgjkNxxiv-5AeCyQ-111" vertex="1">
                    <mxGeometry width="106" height="40" as="geometry">
                        <mxRectangle width="106" height="40" as="alternateBounds"/>
                    </mxGeometry>
                </mxCell>
                <mxCell id="CFDqmgjkNxxiv-5AeCyQ-113" value="&lt;span style=&quot;color: rgb(26 , 26 , 26) ; font-size: 14px&quot;&gt;passenger_id&lt;/span&gt;" style="shape=partialRectangle;html=1;whiteSpace=wrap;connectable=0;overflow=hidden;fillColor=#f5f5f5;top=0;left=0;bottom=0;right=0;pointerEvents=1;fontColor=#333333;strokeColor=#FFFFFF;" parent="CFDqmgjkNxxiv-5AeCyQ-111" vertex="1">
                    <mxGeometry x="106" width="107" height="40" as="geometry">
                        <mxRectangle width="107" height="40" as="alternateBounds"/>
                    </mxGeometry>
                </mxCell>
                <mxCell id="CFDqmgjkNxxiv-5AeCyQ-114" value="&lt;span style=&quot;color: rgb(26 , 26 , 26) ; font-size: 14px&quot;&gt;flight_id&lt;/span&gt;" style="shape=partialRectangle;html=1;whiteSpace=wrap;connectable=0;overflow=hidden;fillColor=#f5f5f5;top=0;left=0;bottom=0;right=0;pointerEvents=1;fontColor=#333333;strokeColor=#FFFFFF;" parent="CFDqmgjkNxxiv-5AeCyQ-111" vertex="1">
                    <mxGeometry x="213" width="107" height="40" as="geometry">
                        <mxRectangle width="107" height="40" as="alternateBounds"/>
                    </mxGeometry>
                </mxCell>
                <mxCell id="CFDqmgjkNxxiv-5AeCyQ-115" value="&lt;span style=&quot;color: rgb(26 , 26 , 26) ; font-size: 14px&quot;&gt;origin&lt;/span&gt;" style="shape=partialRectangle;html=1;whiteSpace=wrap;connectable=0;overflow=hidden;fillColor=#f5f5f5;top=0;left=0;bottom=0;right=0;pointerEvents=1;fontColor=#333333;strokeColor=#FFFFFF;" parent="CFDqmgjkNxxiv-5AeCyQ-111" vertex="1">
                    <mxGeometry x="320" width="107" height="40" as="geometry">
                        <mxRectangle width="107" height="40" as="alternateBounds"/>
                    </mxGeometry>
                </mxCell>
                <mxCell id="CFDqmgjkNxxiv-5AeCyQ-116" value="&lt;span style=&quot;color: rgb(26 , 26 , 26) ; font-size: 14px&quot;&gt;destination&lt;/span&gt;" style="shape=partialRectangle;html=1;whiteSpace=wrap;connectable=0;overflow=hidden;fillColor=#f5f5f5;top=0;left=0;bottom=0;right=0;pointerEvents=1;fontColor=#333333;strokeColor=#FFFFFF;" parent="CFDqmgjkNxxiv-5AeCyQ-111" vertex="1">
                    <mxGeometry x="427" width="106" height="40" as="geometry">
                        <mxRectangle width="106" height="40" as="alternateBounds"/>
                    </mxGeometry>
                </mxCell>
                <mxCell id="CFDqmgjkNxxiv-5AeCyQ-117" value="&lt;span style=&quot;color: rgb(26 , 26 , 26) ; font-size: 14px&quot;&gt;fare&lt;/span&gt;" style="shape=partialRectangle;html=1;whiteSpace=wrap;connectable=0;overflow=hidden;fillColor=#f5f5f5;top=0;left=0;bottom=0;right=0;pointerEvents=1;fontColor=#333333;strokeColor=#FFFFFF;" parent="CFDqmgjkNxxiv-5AeCyQ-111" vertex="1">
                    <mxGeometry x="533" width="107" height="40" as="geometry">
                        <mxRectangle width="107" height="40" as="alternateBounds"/>
                    </mxGeometry>
                </mxCell>
                <mxCell id="CFDqmgjkNxxiv-5AeCyQ-118" value="&lt;span style=&quot;color: rgb(26 , 26 , 26) ; font-size: 14px&quot;&gt;currency&lt;/span&gt;" style="shape=partialRectangle;html=1;whiteSpace=wrap;connectable=0;overflow=hidden;fillColor=#f5f5f5;top=0;left=0;bottom=0;right=0;pointerEvents=1;fontColor=#333333;strokeColor=#FFFFFF;" parent="CFDqmgjkNxxiv-5AeCyQ-111" vertex="1">
                    <mxGeometry x="640" width="107" height="40" as="geometry">
                        <mxRectangle width="107" height="40" as="alternateBounds"/>
                    </mxGeometry>
                </mxCell>
                <mxCell id="CFDqmgjkNxxiv-5AeCyQ-119" value="&lt;span style=&quot;color: rgb(26 , 26 , 26) ; font-size: 14px&quot;&gt;invoice_number&lt;/span&gt;" style="shape=partialRectangle;html=1;whiteSpace=wrap;connectable=0;overflow=hidden;fillColor=#f5f5f5;top=0;left=0;bottom=0;right=0;pointerEvents=1;fontColor=#333333;strokeColor=#FFFFFF;" parent="CFDqmgjkNxxiv-5AeCyQ-111" vertex="1">
                    <mxGeometry x="747" width="107" height="40" as="geometry">
                        <mxRectangle width="107" height="40" as="alternateBounds"/>
                    </mxGeometry>
                </mxCell>
                <mxCell id="CFDqmgjkNxxiv-5AeCyQ-120" value="&lt;span style=&quot;color: rgb(26 , 26 , 26) ; font-size: 14px&quot;&gt;food_preference&lt;/span&gt;" style="shape=partialRectangle;html=1;whiteSpace=wrap;connectable=0;overflow=hidden;fillColor=#f5f5f5;top=0;left=0;bottom=0;right=0;pointerEvents=1;fontColor=#333333;strokeColor=#FFFFFF;" parent="CFDqmgjkNxxiv-5AeCyQ-111" vertex="1">
                    <mxGeometry x="854" width="106" height="40" as="geometry">
                        <mxRectangle width="106" height="40" as="alternateBounds"/>
                    </mxGeometry>
                </mxCell>
                <mxCell id="CFDqmgjkNxxiv-5AeCyQ-147" value="gets_ssn" style="shape=partialRectangle;html=1;whiteSpace=wrap;connectable=0;overflow=hidden;fillColor=#f5f5f5;top=0;left=0;bottom=0;right=0;pointerEvents=1;fontColor=#333333;strokeColor=#FFFFFF;" parent="CFDqmgjkNxxiv-5AeCyQ-111" vertex="1">
                    <mxGeometry x="960" width="106" height="40" as="geometry">
                        <mxRectangle width="106" height="40" as="alternateBounds"/>
                    </mxGeometry>
                </mxCell>
                <mxCell id="CFDqmgjkNxxiv-5AeCyQ-121" value="CREW_MEMEBER" style="text;html=1;align=center;verticalAlign=middle;resizable=0;points=[];autosize=1;strokeColor=#FFFFFF;fillColor=#f5f5f5;fontColor=#333333;" parent="1" vertex="1">
                    <mxGeometry x="40" y="1050" width="120" height="20" as="geometry"/>
                </mxCell>
                <mxCell id="CFDqmgjkNxxiv-5AeCyQ-122" value="" style="shape=table;startSize=0;container=1;collapsible=0;childLayout=tableLayout;fillColor=#f5f5f5;fontColor=#333333;strokeColor=#FFFFFF;" parent="1" vertex="1">
                    <mxGeometry x="40" y="1080" width="937" height="40" as="geometry"/>
                </mxCell>
                <mxCell id="CFDqmgjkNxxiv-5AeCyQ-123" value="" style="shape=tableRow;horizontal=0;startSize=0;swimlaneHead=0;swimlaneBody=0;top=0;left=0;bottom=0;right=0;collapsible=0;dropTarget=0;fillColor=#f5f5f5;points=[[0,0.5],[1,0.5]];portConstraint=eastwest;fontColor=#333333;strokeColor=#FFFFFF;" parent="CFDqmgjkNxxiv-5AeCyQ-122" vertex="1">
                    <mxGeometry width="937" height="40" as="geometry"/>
                </mxCell>
                <mxCell id="CFDqmgjkNxxiv-5AeCyQ-124" value="&lt;u style=&quot;color: rgb(26 , 26 , 26) ; font-size: 14px&quot;&gt;crew_id&lt;/u&gt;" style="shape=partialRectangle;html=1;whiteSpace=wrap;connectable=0;overflow=hidden;fillColor=#f5f5f5;top=0;left=0;bottom=0;right=0;pointerEvents=1;fontColor=#333333;strokeColor=#FFFFFF;" parent="CFDqmgjkNxxiv-5AeCyQ-123" vertex="1">
                    <mxGeometry width="117" height="40" as="geometry">
                        <mxRectangle width="117" height="40" as="alternateBounds"/>
                    </mxGeometry>
                </mxCell>
                <mxCell id="CFDqmgjkNxxiv-5AeCyQ-125" value="&lt;span style=&quot;color: rgb(26 , 26 , 26) ; font-size: 14px&quot;&gt;flight_id&lt;/span&gt;" style="shape=partialRectangle;html=1;whiteSpace=wrap;connectable=0;overflow=hidden;fillColor=#f5f5f5;top=0;left=0;bottom=0;right=0;pointerEvents=1;fontColor=#333333;strokeColor=#FFFFFF;" parent="CFDqmgjkNxxiv-5AeCyQ-123" vertex="1">
                    <mxGeometry x="117" width="117" height="40" as="geometry">
                        <mxRectangle width="117" height="40" as="alternateBounds"/>
                    </mxGeometry>
                </mxCell>
                <mxCell id="CFDqmgjkNxxiv-5AeCyQ-126" value="&lt;span style=&quot;color: rgb(26 , 26 , 26) ; font-size: 14px&quot;&gt;C_Fname&lt;/span&gt;" style="shape=partialRectangle;html=1;whiteSpace=wrap;connectable=0;overflow=hidden;fillColor=#f5f5f5;top=0;left=0;bottom=0;right=0;pointerEvents=1;fontColor=#333333;strokeColor=#FFFFFF;" parent="CFDqmgjkNxxiv-5AeCyQ-123" vertex="1">
                    <mxGeometry x="234" width="117" height="40" as="geometry">
                        <mxRectangle width="117" height="40" as="alternateBounds"/>
                    </mxGeometry>
                </mxCell>
                <mxCell id="CFDqmgjkNxxiv-5AeCyQ-127" value="&lt;span style=&quot;color: rgb(26 , 26 , 26) ; font-size: 14px&quot;&gt;C_Mname&lt;/span&gt;" style="shape=partialRectangle;html=1;whiteSpace=wrap;connectable=0;overflow=hidden;fillColor=#f5f5f5;top=0;left=0;bottom=0;right=0;pointerEvents=1;fontColor=#333333;strokeColor=#FFFFFF;" parent="CFDqmgjkNxxiv-5AeCyQ-123" vertex="1">
                    <mxGeometry x="351" width="118" height="40" as="geometry">
                        <mxRectangle width="118" height="40" as="alternateBounds"/>
                    </mxGeometry>
                </mxCell>
                <mxCell id="CFDqmgjkNxxiv-5AeCyQ-128" value="&lt;span style=&quot;color: rgb(26 , 26 , 26) ; font-size: 14px&quot;&gt;C_Lname&lt;/span&gt;" style="shape=partialRectangle;html=1;whiteSpace=wrap;connectable=0;overflow=hidden;fillColor=#f5f5f5;top=0;left=0;bottom=0;right=0;pointerEvents=1;fontColor=#333333;strokeColor=#FFFFFF;" parent="CFDqmgjkNxxiv-5AeCyQ-123" vertex="1">
                    <mxGeometry x="469" width="117" height="40" as="geometry">
                        <mxRectangle width="117" height="40" as="alternateBounds"/>
                    </mxGeometry>
                </mxCell>
                <mxCell id="CFDqmgjkNxxiv-5AeCyQ-129" value="&lt;span style=&quot;color: rgb(26 , 26 , 26) ; font-size: 14px&quot;&gt;conNumber&lt;/span&gt;" style="shape=partialRectangle;html=1;whiteSpace=wrap;connectable=0;overflow=hidden;fillColor=#f5f5f5;top=0;left=0;bottom=0;right=0;pointerEvents=1;fontColor=#333333;strokeColor=#FFFFFF;" parent="CFDqmgjkNxxiv-5AeCyQ-123" vertex="1">
                    <mxGeometry x="586" width="117" height="40" as="geometry">
                        <mxRectangle width="117" height="40" as="alternateBounds"/>
                    </mxGeometry>
                </mxCell>
                <mxCell id="CFDqmgjkNxxiv-5AeCyQ-130" value="&lt;span style=&quot;color: rgb(26 , 26 , 26) ; font-size: 14px&quot;&gt;designation&lt;/span&gt;" style="shape=partialRectangle;html=1;whiteSpace=wrap;connectable=0;overflow=hidden;fillColor=#f5f5f5;top=0;left=0;bottom=0;right=0;pointerEvents=1;fontColor=#333333;strokeColor=#FFFFFF;" parent="CFDqmgjkNxxiv-5AeCyQ-123" vertex="1">
                    <mxGeometry x="703" width="117" height="40" as="geometry">
                        <mxRectangle width="117" height="40" as="alternateBounds"/>
                    </mxGeometry>
                </mxCell>
                <mxCell id="CFDqmgjkNxxiv-5AeCyQ-153" value="Ft_id" style="shape=partialRectangle;html=1;whiteSpace=wrap;connectable=0;overflow=hidden;fillColor=#f5f5f5;top=0;left=0;bottom=0;right=0;pointerEvents=1;fontColor=#333333;strokeColor=#FFFFFF;" parent="CFDqmgjkNxxiv-5AeCyQ-123" vertex="1">
                    <mxGeometry x="820" width="117" height="40" as="geometry">
                        <mxRectangle width="117" height="40" as="alternateBounds"/>
                    </mxGeometry>
                </mxCell>
                <mxCell id="CFDqmgjkNxxiv-5AeCyQ-131" value="&lt;font style=&quot;font-size: 12px&quot;&gt;DEPENDENT&lt;/font&gt;" style="text;html=1;align=center;verticalAlign=middle;resizable=0;points=[];autosize=1;strokeColor=#FFFFFF;fillColor=#f5f5f5;fontSize=14;fontColor=#333333;" parent="1" vertex="1">
                    <mxGeometry x="40" y="1210" width="90" height="20" as="geometry"/>
                </mxCell>
                <mxCell id="CFDqmgjkNxxiv-5AeCyQ-132" value="" style="shape=table;startSize=0;container=1;collapsible=0;childLayout=tableLayout;fontSize=12;fillColor=#f5f5f5;fontColor=#333333;strokeColor=#FFFFFF;" parent="1" vertex="1">
                    <mxGeometry x="40" y="1240" width="480" height="40" as="geometry"/>
                </mxCell>
                <mxCell id="CFDqmgjkNxxiv-5AeCyQ-133" value="" style="shape=tableRow;horizontal=0;startSize=0;swimlaneHead=0;swimlaneBody=0;top=0;left=0;bottom=0;right=0;collapsible=0;dropTarget=0;fillColor=#f5f5f5;points=[[0,0.5],[1,0.5]];portConstraint=eastwest;fontSize=12;fontColor=#333333;strokeColor=#FFFFFF;" parent="CFDqmgjkNxxiv-5AeCyQ-132" vertex="1">
                    <mxGeometry width="480" height="40" as="geometry"/>
                </mxCell>
                <mxCell id="CFDqmgjkNxxiv-5AeCyQ-134" value="&lt;u&gt;C_id&lt;/u&gt;" style="shape=partialRectangle;html=1;whiteSpace=wrap;connectable=0;overflow=hidden;fillColor=#f5f5f5;top=0;left=0;bottom=0;right=0;pointerEvents=1;fontSize=12;align=center;fontColor=#333333;strokeColor=#FFFFFF;" parent="CFDqmgjkNxxiv-5AeCyQ-133" vertex="1">
                    <mxGeometry width="120" height="40" as="geometry">
                        <mxRectangle width="120" height="40" as="alternateBounds"/>
                    </mxGeometry>
                </mxCell>
                <mxCell id="CFDqmgjkNxxiv-5AeCyQ-135" value="&lt;u&gt;Dname&lt;/u&gt;" style="shape=partialRectangle;html=1;whiteSpace=wrap;connectable=0;overflow=hidden;fillColor=#f5f5f5;top=0;left=0;bottom=0;right=0;pointerEvents=1;fontSize=12;fontColor=#333333;strokeColor=#FFFFFF;" parent="CFDqmgjkNxxiv-5AeCyQ-133" vertex="1">
                    <mxGeometry x="120" width="120" height="40" as="geometry">
                        <mxRectangle width="120" height="40" as="alternateBounds"/>
                    </mxGeometry>
                </mxCell>
                <mxCell id="CFDqmgjkNxxiv-5AeCyQ-136" value="&lt;span style=&quot;color: rgb(26 , 26 , 26)&quot;&gt;relationship&lt;/span&gt;" style="shape=partialRectangle;html=1;whiteSpace=wrap;connectable=0;overflow=hidden;fillColor=#f5f5f5;top=0;left=0;bottom=0;right=0;pointerEvents=1;fontSize=12;fontColor=#333333;strokeColor=#FFFFFF;" parent="CFDqmgjkNxxiv-5AeCyQ-133" vertex="1">
                    <mxGeometry x="240" width="120" height="40" as="geometry">
                        <mxRectangle width="120" height="40" as="alternateBounds"/>
                    </mxGeometry>
                </mxCell>
                <mxCell id="CFDqmgjkNxxiv-5AeCyQ-137" value="&lt;span style=&quot;color: rgb(26 , 26 , 26)&quot;&gt;Birth_date&lt;/span&gt;" style="shape=partialRectangle;html=1;whiteSpace=wrap;connectable=0;overflow=hidden;fillColor=#f5f5f5;top=0;left=0;bottom=0;right=0;pointerEvents=1;fontSize=12;fontColor=#333333;strokeColor=#FFFFFF;" parent="CFDqmgjkNxxiv-5AeCyQ-133" vertex="1">
                    <mxGeometry x="360" width="120" height="40" as="geometry">
                        <mxRectangle width="120" height="40" as="alternateBounds"/>
                    </mxGeometry>
                </mxCell>
                <mxCell id="CFDqmgjkNxxiv-5AeCyQ-139" value="" style="endArrow=classic;html=1;rounded=0;fontSize=12;exitX=0.123;exitY=1.029;exitDx=0;exitDy=0;exitPerimeter=0;fillColor=#f5f5f5;strokeColor=#FFFFFF;" parent="1" source="CFDqmgjkNxxiv-5AeCyQ-133" edge="1">
                    <mxGeometry width="50" height="50" relative="1" as="geometry">
                        <mxPoint x="100" y="1310" as="sourcePoint"/>
                        <mxPoint x="99" y="1120" as="targetPoint"/>
                        <Array as="points">
                            <mxPoint x="100" y="1320"/>
                            <mxPoint x="10" y="1320"/>
                            <mxPoint x="10" y="1200"/>
                            <mxPoint x="100" y="1200"/>
                        </Array>
                    </mxGeometry>
                </mxCell>
                <mxCell id="CFDqmgjkNxxiv-5AeCyQ-142" value="" style="endArrow=classic;html=1;rounded=0;fontSize=12;entryX=0.069;entryY=1.102;entryDx=0;entryDy=0;entryPerimeter=0;fillColor=#f5f5f5;strokeColor=#FFFFFF;" parent="1" target="CFDqmgjkNxxiv-5AeCyQ-54" edge="1">
                    <mxGeometry width="50" height="50" relative="1" as="geometry">
                        <mxPoint x="800" y="480" as="sourcePoint"/>
                        <mxPoint x="159" y="350" as="targetPoint"/>
                        <Array as="points">
                            <mxPoint x="800" y="560"/>
                            <mxPoint x="10" y="560"/>
                            <mxPoint x="10" y="240"/>
                            <mxPoint x="87" y="240"/>
                        </Array>
                    </mxGeometry>
                </mxCell>
                <mxCell id="CFDqmgjkNxxiv-5AeCyQ-144" value="" style="endArrow=classic;html=1;rounded=0;fontSize=12;fillColor=#f5f5f5;strokeColor=#FFFFFF;" parent="1" edge="1">
                    <mxGeometry width="50" height="50" relative="1" as="geometry">
                        <mxPoint x="220" y="800" as="sourcePoint"/>
                        <mxPoint x="110" y="640" as="targetPoint"/>
                        <Array as="points">
                            <mxPoint x="220" y="880"/>
                            <mxPoint x="20" y="880"/>
                            <mxPoint x="20" y="680"/>
                            <mxPoint x="108" y="680"/>
                        </Array>
                    </mxGeometry>
                </mxCell>
                <mxCell id="CFDqmgjkNxxiv-5AeCyQ-146" value="" style="endArrow=classic;html=1;rounded=0;fontSize=12;entryX=0.048;entryY=1.017;entryDx=0;entryDy=0;entryPerimeter=0;fillColor=#f5f5f5;strokeColor=#FFFFFF;" parent="1" target="CFDqmgjkNxxiv-5AeCyQ-111" edge="1">
                    <mxGeometry width="50" height="50" relative="1" as="geometry">
                        <mxPoint x="1027" y="640" as="sourcePoint"/>
                        <mxPoint x="600" y="640" as="targetPoint"/>
                        <Array as="points">
                            <mxPoint x="1027" y="680"/>
                            <mxPoint x="1160" y="680"/>
                            <mxPoint x="1160" y="1000"/>
                            <mxPoint x="89" y="1000"/>
                        </Array>
                    </mxGeometry>
                </mxCell>
                <mxCell id="CFDqmgjkNxxiv-5AeCyQ-148" value="" style="endArrow=classic;html=1;rounded=0;fontSize=12;exitX=0.949;exitY=1.087;exitDx=0;exitDy=0;exitPerimeter=0;fillColor=#f5f5f5;strokeColor=#FFFFFF;" parent="1" source="CFDqmgjkNxxiv-5AeCyQ-111" edge="1">
                    <mxGeometry width="50" height="50" relative="1" as="geometry">
                        <mxPoint x="620" y="900" as="sourcePoint"/>
                        <mxPoint x="100" y="800" as="targetPoint"/>
                        <Array as="points">
                            <mxPoint x="1052" y="990"/>
                            <mxPoint x="1130" y="990"/>
                            <mxPoint x="1130" y="860"/>
                            <mxPoint x="100" y="860"/>
                        </Array>
                    </mxGeometry>
                </mxCell>
                <mxCell id="CFDqmgjkNxxiv-5AeCyQ-150" value="" style="endArrow=classic;html=1;rounded=0;fontSize=12;fillColor=#f5f5f5;strokeColor=#FFFFFF;" parent="1" edge="1">
                    <mxGeometry width="50" height="50" relative="1" as="geometry">
                        <mxPoint x="1154" y="640" as="sourcePoint"/>
                        <mxPoint x="85" y="480" as="targetPoint"/>
                        <Array as="points">
                            <mxPoint x="1154" y="670"/>
                            <mxPoint x="1240" y="670"/>
                            <mxPoint x="1240" y="520"/>
                            <mxPoint x="85" y="520"/>
                        </Array>
                    </mxGeometry>
                </mxCell>
                <mxCell id="CFDqmgjkNxxiv-5AeCyQ-152" value="" style="endArrow=classic;html=1;rounded=0;fontSize=12;fillColor=#f5f5f5;strokeColor=#FFFFFF;" parent="1" edge="1">
                    <mxGeometry width="50" height="50" relative="1" as="geometry">
                        <mxPoint x="341" y="800" as="sourcePoint"/>
                        <mxPoint x="69" y="480" as="targetPoint"/>
                        <Array as="points">
                            <mxPoint x="341" y="840"/>
                            <mxPoint x="30" y="840"/>
                            <mxPoint x="30" y="520"/>
                            <mxPoint x="69" y="520"/>
                        </Array>
                    </mxGeometry>
                </mxCell>
                <mxCell id="CFDqmgjkNxxiv-5AeCyQ-154" value="" style="endArrow=classic;html=1;rounded=0;fontSize=12;exitX=0.936;exitY=1.02;exitDx=0;exitDy=0;exitPerimeter=0;fillColor=#f5f5f5;strokeColor=#FFFFFF;" parent="1" source="CFDqmgjkNxxiv-5AeCyQ-123" edge="1">
                    <mxGeometry width="50" height="50" relative="1" as="geometry">
                        <mxPoint x="630" y="1020" as="sourcePoint"/>
                        <mxPoint x="100" y="480" as="targetPoint"/>
                        <Array as="points">
                            <mxPoint x="917" y="1150"/>
                            <mxPoint x="1270" y="1150"/>
                            <mxPoint x="1260" y="510"/>
                            <mxPoint x="100" y="510"/>
                        </Array>
                    </mxGeometry>
                </mxCell>
                <mxCell id="CFDqmgjkNxxiv-5AeCyQ-155" value="use" style="text;html=1;align=center;verticalAlign=middle;resizable=0;points=[];autosize=1;strokeColor=#FFFFFF;fillColor=#f5f5f5;fontSize=12;fontColor=#333333;" parent="1" vertex="1">
                    <mxGeometry x="40" y="1370" width="30" height="20" as="geometry"/>
                </mxCell>
                <mxCell id="CFDqmgjkNxxiv-5AeCyQ-156" value="" style="shape=table;startSize=0;container=1;collapsible=0;childLayout=tableLayout;fontSize=12;fillColor=#f5f5f5;fontColor=#333333;strokeColor=#FFFFFF;" parent="1" vertex="1">
                    <mxGeometry x="40" y="1400" width="200" height="40" as="geometry"/>
                </mxCell>
                <mxCell id="CFDqmgjkNxxiv-5AeCyQ-157" value="" style="shape=tableRow;horizontal=0;startSize=0;swimlaneHead=0;swimlaneBody=0;top=0;left=0;bottom=0;right=0;collapsible=0;dropTarget=0;fillColor=#f5f5f5;points=[[0,0.5],[1,0.5]];portConstraint=eastwest;fontSize=12;fontColor=#333333;strokeColor=#FFFFFF;" parent="CFDqmgjkNxxiv-5AeCyQ-156" vertex="1">
                    <mxGeometry width="200" height="40" as="geometry"/>
                </mxCell>
                <mxCell id="CFDqmgjkNxxiv-5AeCyQ-158" value="air_id" style="shape=partialRectangle;html=1;whiteSpace=wrap;connectable=0;overflow=hidden;fillColor=#f5f5f5;top=0;left=0;bottom=0;right=0;pointerEvents=1;fontSize=12;fontColor=#333333;strokeColor=#FFFFFF;" parent="CFDqmgjkNxxiv-5AeCyQ-157" vertex="1">
                    <mxGeometry width="100" height="40" as="geometry">
                        <mxRectangle width="100" height="40" as="alternateBounds"/>
                    </mxGeometry>
                </mxCell>
                <mxCell id="CFDqmgjkNxxiv-5AeCyQ-159" value="flit_id" style="shape=partialRectangle;html=1;whiteSpace=wrap;connectable=0;overflow=hidden;fillColor=#f5f5f5;top=0;left=0;bottom=0;right=0;pointerEvents=1;fontSize=12;fontColor=#333333;strokeColor=#FFFFFF;" parent="CFDqmgjkNxxiv-5AeCyQ-157" vertex="1">
                    <mxGeometry x="100" width="100" height="40" as="geometry">
                        <mxRectangle width="100" height="40" as="alternateBounds"/>
                    </mxGeometry>
                </mxCell>
                <mxCell id="CFDqmgjkNxxiv-5AeCyQ-160" value="" style="endArrow=classic;html=1;rounded=0;fontSize=12;entryX=0.613;entryY=1.04;entryDx=0;entryDy=0;entryPerimeter=0;fillColor=#f5f5f5;strokeColor=#FFFFFF;" parent="1" target="CFDqmgjkNxxiv-5AeCyQ-79" edge="1">
                    <mxGeometry width="50" height="50" relative="1" as="geometry">
                        <mxPoint x="89" y="1440" as="sourcePoint"/>
                        <mxPoint x="245" y="1470" as="targetPoint"/>
                        <Array as="points">
                            <mxPoint x="89" y="1460"/>
                            <mxPoint x="-10" y="1460"/>
                            <mxPoint y="370"/>
                            <mxPoint x="291" y="370"/>
                        </Array>
                    </mxGeometry>
                </mxCell>
                <mxCell id="CFDqmgjkNxxiv-5AeCyQ-161" value="" style="endArrow=classic;html=1;rounded=0;fontSize=12;exitX=0.79;exitY=1.092;exitDx=0;exitDy=0;exitPerimeter=0;fillColor=#f5f5f5;strokeColor=#FFFFFF;" parent="1" source="CFDqmgjkNxxiv-5AeCyQ-157" edge="1">
                    <mxGeometry width="50" height="50" relative="1" as="geometry">
                        <mxPoint x="389" y="1440" as="sourcePoint"/>
                        <mxPoint x="120" y="480" as="targetPoint"/>
                        <Array as="points">
                            <mxPoint x="198" y="1460"/>
                            <mxPoint x="1280" y="1460"/>
                            <mxPoint x="1280" y="500"/>
                            <mxPoint x="120" y="500"/>
                        </Array>
                    </mxGeometry>
                </mxCell>
            </root>
        </mxGraphModel>
    </diagram>
</mxfile>